<svg width="16" height="16" viewBox="0 0 16 16" fill="none" xmlns="http://www.w3.org/2000/svg">
<path d="M13.2802 13.2825H11.0589V9.80183C11.0589 8.97183 11.0421 7.90375 9.90142 7.90375C8.74334 7.90375 8.56642 8.80692 8.56642 9.74058V13.2825H6.34517V6.125H8.47892V7.10058H8.50767C8.80584 6.53808 9.53084 5.94437 10.6139 5.94437C12.8646 5.94437 13.2808 7.42567 13.2808 9.35375L13.2802 13.2825ZM3.83645 5.14562C3.12145 5.14562 2.54707 4.56687 2.54707 3.855C2.54707 3.14375 3.12207 2.56563 3.83645 2.56563C4.54895 2.56563 5.12645 3.14375 5.12645 3.855C5.12645 4.56687 4.54832 5.14562 3.83645 5.14562ZM4.9502 13.2825H2.7227V6.125H4.9502V13.2825ZM14.3914 0.5H1.6077C0.995824 0.5 0.500824 0.98375 0.500824 1.58063V14.4194C0.500824 15.0168 0.995824 15.5 1.6077 15.5H14.3896C15.0008 15.5 15.5008 15.0168 15.5008 14.4194V1.58063C15.5008 0.98375 15.0008 0.5 14.3896 0.5H14.3914Z" fill="#4338CA"/>
</svg>
